<svg width="20" height="20" viewBox="0 0 20 20" fill="none" xmlns="http://www.w3.org/2000/svg">
<g id="material-symbols:check-circle-outline-rounded">
<path id="Vector" d="M8.83335 11.5L7.02085 9.6875C6.86808 9.53473 6.67696 9.46167 6.44752 9.46834C6.21808 9.47501 6.02724 9.555 5.87502 9.70834C5.72224 9.86112 5.64585 10.0556 5.64585 10.2917C5.64585 10.5278 5.72224 10.7222 5.87502 10.875L8.25002 13.25C8.4028 13.4028 8.59724 13.4792 8.83335 13.4792C9.06947 13.4792 9.26391 13.4028 9.41669 13.25L14.1459 8.52084C14.2986 8.36806 14.3717 8.17695 14.365 7.9475C14.3584 7.71806 14.2784 7.52723 14.125 7.37501C13.9722 7.22223 13.7778 7.14584 13.5417 7.14584C13.3056 7.14584 13.1111 7.22223 12.9584 7.37501L8.83335 11.5ZM10 18.3333C8.84724 18.3333 7.76391 18.1144 6.75002 17.6767C5.73613 17.2389 4.85419 16.6453 4.10419 15.8958C3.35419 15.1458 2.76058 14.2639 2.32335 13.25C1.88613 12.2361 1.66724 11.1528 1.66669 10C1.66669 8.84723 1.88558 7.76389 2.32335 6.75001C2.76113 5.73612 3.35474 4.85417 4.10419 4.10417C4.85419 3.35417 5.73613 2.76056 6.75002 2.32334C7.76391 1.88612 8.84724 1.66723 10 1.66667C11.1528 1.66667 12.2361 1.88556 13.25 2.32334C14.2639 2.76112 15.1459 3.35473 15.8959 4.10417C16.6459 4.85417 17.2397 5.73612 17.6775 6.75001C18.1153 7.76389 18.3339 8.84723 18.3334 10C18.3334 11.1528 18.1145 12.2361 17.6767 13.25C17.2389 14.2639 16.6453 15.1458 15.8959 15.8958C15.1459 16.6458 14.2639 17.2397 13.25 17.6775C12.2361 18.1153 11.1528 18.3339 10 18.3333ZM10 16.6667C11.8472 16.6667 13.4203 16.0175 14.7192 14.7192C16.0181 13.4208 16.6672 11.8478 16.6667 10C16.6667 8.15278 16.0175 6.57973 14.7192 5.28084C13.4209 3.98195 11.8478 3.33278 10 3.33334C8.1528 3.33334 6.57974 3.98251 5.28085 5.28084C3.98196 6.57917 3.3328 8.15223 3.33335 10C3.33335 11.8472 3.98252 13.4203 5.28085 14.7192C6.57919 16.0181 8.15224 16.6672 10 16.6667Z" fill="#FAFF00"/>
</g>
</svg>
